name ./resultDataOpenSim/trcMotMarkerGrf/sub09/grf-12-06.mot
datacolumns 19
datarows 10
range 0.96000000 0.99600000
endheader

                time	     ground_force_vx	     ground_force_vy	     ground_force_vz	     ground_force_px	     ground_force_py	     ground_force_pz	   l_ground_force_vx	   l_ground_force_vy	   l_ground_force_vz	   l_ground_force_px	   l_ground_force_py	   l_ground_force_pz	     ground_torque_x	     ground_torque_y	     ground_torque_z	   l_ground_torque_x	   l_ground_torque_y	   l_ground_torque_z	
          0.96000000	          0.00000000	          0.00000000	          0.00000000	          0.00000000	          0.00000000	          0.00000000	        -13.23503696	        468.58070437	         16.02559828	          0.14913013	         -0.02500000	         -0.00703317	          0.00000000	          0.00000000	          0.00000000	          0.00000000	         -1.17710267	          0.00000000	
          0.96400000	          0.00000000	          0.00000000	          0.00000000	          0.00000000	          0.00000000	          0.00000000	        -11.95697674	        475.17106682	         15.78550556	          0.14995713	         -0.02500000	         -0.00679201	          0.00000000	          0.00000000	          0.00000000	          0.00000000	         -1.35804083	          0.00000000	
          0.96800000	          0.00000000	          0.00000000	          0.00000000	          0.00000000	          0.00000000	          0.00000000	        -10.54062259	        481.77317336	         15.54546067	          0.15067674	         -0.02500032	         -0.00655684	          0.00000000	          0.00000000	          0.00000000	          0.00000000	         -1.54323619	          0.00000000	
          0.97200000	          0.00000000	          0.00000000	          0.00000000	          0.00000000	          0.00000000	          0.00000000	         -8.87039184	        488.36739951	         15.27798895	          0.15124713	         -0.02500095	         -0.00634582	          0.00000000	          0.00000000	          0.00000000	          0.00000000	         -1.73626882	          0.00000000	
          0.97600000	          0.00000000	          0.00000000	          0.00000000	          0.00000000	          0.00000000	          0.00000000	         -6.85590731	        494.99040672	         14.95230474	          0.15163405	         -0.02500087	         -0.00616233	          0.00000000	          0.00000000	          0.00000000	          0.00000000	         -1.94105525	          0.00000000	
          0.98000000	          0.00000000	          0.00000000	          0.00000000	          0.00000000	          0.00000000	          0.00000000	         -4.43762000	        501.67697294	         14.54752575	          0.15183093	         -0.02500080	         -0.00599879	          0.00000000	          0.00000000	          0.00000000	          0.00000000	         -2.16061757	          0.00000000	
          0.98400000	          0.00000000	          0.00000000	          0.00000000	          0.00000000	          0.00000000	          0.00000000	         -1.57063764	        508.40251223	         14.06500544	          0.15188911	         -0.02500011	         -0.00584119	          0.00000000	          0.00000000	          0.00000000	          0.00000000	         -2.39609437	          0.00000000	
          0.98800000	          0.00000000	          0.00000000	          0.00000000	          0.00000000	          0.00000000	          0.00000000	          1.78223443	        515.10129328	         13.52842665	          0.15192128	         -0.02500071	         -0.00566480	          0.00000000	          0.00000000	          0.00000000	          0.00000000	         -2.64647199	          0.00000000	
          0.99200000	          0.00000000	          0.00000000	          0.00000000	          0.00000000	          0.00000000	          0.00000000	          5.63193301	        521.72784984	         12.97083253	          0.15203638	         -0.02500100	         -0.00543776	          0.00000000	          0.00000000	          0.00000000	          0.00000000	         -2.90913655	          0.00000000	
          0.99600000	          0.00000000	          0.00000000	          0.00000000	          0.00000000	          0.00000000	          0.00000000	          9.95499278	        528.26236035	         12.41964418	          0.15227467	         -0.02500100	         -0.00515141	          0.00000000	          0.00000000	          0.00000000	          0.00000000	         -3.18085526	          0.00000000	
